<?xml version="1.0" encoding="UTF-8" standalone="no"?>
<!-- Created with Inkscape (http://www.inkscape.org/) -->

<svg
   width="15.875mm"
   height="15.875mm"
   viewBox="0 0 15.875 15.875"
   version="1.1"
   id="svg1"
   inkscape:version="1.3.2 (091e20ef0f, 2023-11-25, custom)"
   sodipodi:docname="sawblade.svg"
   xmlns:inkscape="http://www.inkscape.org/namespaces/inkscape"
   xmlns:sodipodi="http://sodipodi.sourceforge.net/DTD/sodipodi-0.dtd"
   xmlns="http://www.w3.org/2000/svg"
   xmlns:svg="http://www.w3.org/2000/svg">
  <sodipodi:namedview
     id="namedview1"
     pagecolor="#505050"
     bordercolor="#eeeeee"
     borderopacity="1"
     inkscape:showpageshadow="0"
     inkscape:pageopacity="0"
     inkscape:pagecheckerboard="0"
     inkscape:deskcolor="#d1d1d1"
     inkscape:document-units="mm"
     inkscape:zoom="7.0153262"
     inkscape:cx="24.090113"
     inkscape:cy="60.4391"
     inkscape:window-width="1837"
     inkscape:window-height="1046"
     inkscape:window-x="63"
     inkscape:window-y="14"
     inkscape:window-maximized="0"
     inkscape:current-layer="layer1" />
  <defs
     id="defs1" />
  <g
     inkscape:label="SawBlade"
     inkscape:groupmode="layer"
     id="layer1"
     transform="translate(-23.475465,-17.061051)">
    <path
       id="path1"
       style="fill:#b3b3b3;stroke:none;stroke-width:0;stroke-linecap:round;stroke-linejoin:round"
       inkscape:label="Teeth"
       d="M 29.720045 17.061051 C 29.720045 17.061051 31.347904 18.180125 30.590276 19.217509 A 5.8394999 5.8393603 0 0 0 30.052325 19.33378 C 29.202461 18.844432 27.486161 18.100086 25.977638 18.971012 C 25.977638 18.971012 27.965691 19.127951 27.808534 20.421053 A 5.8394999 5.8393603 0 0 0 27.400807 20.773486 C 26.419792 20.774786 24.562565 20.988016 23.691989 22.495861 C 23.691989 22.495861 25.492367 21.637494 26.002443 22.836926 A 5.8394999 5.8393603 0 0 0 25.810206 23.353173 C 24.958065 23.850308 23.475465 24.963642 23.475465 26.691988 C 23.475465 26.691988 24.595031 25.063114 25.632439 25.820723 A 5.8394999 5.8393603 0 0 0 25.748194 26.359191 C 25.258833 27.209035 24.51448 28.924873 25.385426 30.433361 C 25.385426 30.433361 25.541948 28.445863 26.835467 28.603499 A 5.8394999 5.8393603 0 0 0 27.1879 29.010192 C 27.1892 29.991185 27.402393 31.848455 28.910275 32.71901 C 28.910275 32.71901 28.051805 30.918591 29.25134 30.408557 A 5.8394999 5.8393603 0 0 0 29.767587 30.60131 C 30.26486 31.453501 31.377794 32.936051 33.105885 32.936051 C 33.105885 32.936051 31.477535 31.816457 32.235137 30.779077 A 5.8394999 5.8393603 0 0 0 32.774122 30.662805 C 33.624085 31.152157 35.339938 31.896917 36.848292 31.02609 C 36.848292 31.02609 34.860274 30.86902 35.017913 29.575533 A 5.8394999 5.8393603 0 0 0 35.424606 29.223616 C 36.405573 29.222316 38.263309 29.008665 39.133941 27.500724 C 39.133941 27.500724 37.333534 28.359166 36.823487 27.159659 A 5.8394999 5.8393603 0 0 0 37.015724 26.643412 C 37.867892 26.14623 39.350465 25.03335 39.350465 23.305114 C 39.350465 23.305114 38.231018 24.934218 37.193491 24.175862 A 5.8394999 5.8393603 0 0 0 37.087037 23.621891 C 37.576455 22.766623 38.306048 21.062354 37.440504 19.563224 C 37.440504 19.563224 37.28539 21.535673 36.006483 21.396187 A 5.8394999 5.8393603 0 0 0 35.63803 20.97089 C 35.63433 19.985754 35.415334 18.143394 33.915655 17.277575 C 33.915655 17.277575 34.766687 19.062194 33.59061 19.581311 A 5.8394999 5.8393603 0 0 0 33.058859 19.396826 C 32.562022 18.544878 31.449158 17.061051 29.720045 17.061051 z M 31.412965 23.675634 A 1.3229166 1.3229166 0 0 1 32.735882 24.998551 A 1.3229166 1.3229166 0 0 1 31.412965 26.321468 A 1.3229166 1.3229166 0 0 1 30.090048 24.998551 A 1.3229166 1.3229166 0 0 1 31.412965 23.675634 z " />
    <path
       id="circle15"
       style="fill:#333333;stroke:none;stroke-width:0;stroke-linecap:round;stroke-linejoin:round"
       inkscape:label="OuterCircle"
       d="m 30.478516,20.332031 c -2.325746,0.448325 -4.103239,2.797724 -3.775393,5.163626 0.174352,2.342884 2.336845,4.265505 4.672988,4.258817 2.594275,0.101588 4.921956,-2.266866 4.795899,-4.856356 0.02219,-2.669537 -2.577536,-5.017131 -5.237968,-4.610893 -0.151842,0.01494 -0.303684,0.02987 -0.455526,0.04481 z m 1.142578,2.828125 c 1.47555,0.0898 2.201304,2.119603 1.121094,3.126953 -0.979597,1.123522 -3.05896,0.411852 -3.149051,-1.071861 -0.180087,-1.147966 0.887615,-2.187592 2.027957,-2.055092 z" />
  </g>
</svg>
